<svg xmlns:xlink="http://www.w3.org/1999/xlink" class="loadsvg" id="svgEvolution" style="enable-background:new 0 0 200 65.305" xmlns="http://www.w3.org/2000/svg" xml:space="preserve" viewBox="0 0 200 65.305" version="1.1" y="0px" x="0px">
 <defs> <filter id="filter1"> <feGaussianBlur stdDeviation="0"></feGaussianBlur> </filter> <filter id="filter2"> <feGaussianBlur stdDeviation="0"></feGaussianBlur> </filter> <filter id="filter3"> <feGaussianBlur stdDeviation="0"></feGaussianBlur> </filter> <filter id="filter4"> <feGaussianBlur stdDeviation="0"></feGaussianBlur> </filter> <filter id="filter5"> <feGaussianBlur stdDeviation="0"></feGaussianBlur> </filter> </defs> <g id="person_1" filter="url(#filter1)" fill="#31373E" class="person_gr"> <line y2="-5.303" x2="131.87" y1="-5.305" x1="131.87"></line> <path d="m33.246 37.001v1.924l-0.003 0.003-0.005 0.005c-0.005 0.008-0.016 0.016-0.026 0.029-0.013 0.011-0.026 0.026-0.045 0.045-0.018 0.018-0.037 0.039-0.058 0.06h-0.003c-0.303 0.305-1.013 0.987-1.282 0.987-0.016 0-0.037-0.003-0.058-0.005-0.111-0.032-0.242-0.137-0.371-0.271-0.026-0.026-0.053-0.055-0.079-0.084-0.032-0.034-0.063-0.071-0.092-0.108-0.032-0.037-0.061-0.071-0.09-0.108s-0.058-0.071-0.081-0.105c-0.026-0.034-0.053-0.066-0.074-0.097-0.034-0.05-0.066-0.092-0.089-0.126-0.034-0.05-0.055-0.081-0.055-0.081l-1.592-2.058-0.734 0.087s-0.216 1.361-0.474 1.742-0.732 0.171-0.732 0.171l-2.161-5.061-1.445-2.705-0.105-0.197-0.379-0.711v-1.487l2.713-2.084h2.279l2.716 1.521-0.258 0.476h-0.389l-0.474 6.569h0.389l0.474-6.1h0.924v5.208h0.411v-2.595h0.313v6.103h0.482v-0.945h0.453z"></path> <path d="m31.767 40.048l-0.855 1.534-0.045 0.079-1.726 3.097-0.045 0.082-0.282 0.505 0.147 0.553-1.163 0.955-0.711-0.297v-1.468l0.497-0.184 0.224-0.405 0.042-0.074 1.682-3.021 0.045-0.079 1.258-2.258s0.021 0.032 0.055 0.081c0.024 0.034 0.055 0.076 0.089 0.126 0.021 0.032 0.047 0.063 0.074 0.097 0.024 0.034 0.053 0.068 0.081 0.105 0.026 0.037 0.058 0.074 0.09 0.108 0.029 0.037 0.061 0.074 0.092 0.108 0.026 0.029 0.053 0.058 0.079 0.084 0.13 0.135 0.261 0.241 0.372 0.272z"></path> <polygon points="27.798 46.853 22.361 56.567 27.088 46.556"></polygon> <path d="m30.663 28.763h2.52v-0.479h1.292v0.989"></path> <polyline points="32.311 31.844 32.311 29.996 32.311 29.815 32.795 29.815 32.795 36.033"></polyline> <polyline points="31.587 29.23 31.95 29.23 31.95 29.995 32.311 29.995"></polyline> <path d="m34.087 39.475v2.837h-0.979v-3.245c0.021-0.021 0.039-0.042 0.058-0.061 0.034-0.034 0.058-0.06 0.071-0.074l0.011-0.011v-1.921l0.839 2.475z"></path> <rect height="5.569" width=".258" y="29.273" x="34.474"></rect> <rect height="5.569" width=".258" y="29.273" x="34.732"></rect> <rect height="5.675" width=".258" y="29.273" x="35.767"></rect> <rect height="5.676" width=".259" y="29.273" x="35.508"></rect> <path d="m35.185 34.841v1.021l-0.645 1.14h-1.292v1.921l-0.011 0.011c0.005-0.008 0.008-0.011 0.008-0.011v-1.921h-0.45v-0.968h1.679v-1.192h0.711z"></path> <line y2="34.841" x2="35.185" y1="34.841" x1="35.251"></line> <rect height="5.675" width=".259" y="29.273" x="36.025"></rect> <rect height="5.676" width=".258" y="29.273" x="36.284"></rect> <rect height="5.569" width=".259" y="29.273" x="35.25"></rect> <line y2="29.273" x2="34.991" y1="29.273" x1="35.25"></line> <polygon points="37.672 28.541 37.672 29.784 37.381 29.784 37.381 34.664 36.896 34.664 36.896 34.949 36.542 34.949 36.542 29.273 36.348 29.273 36.348 28.541"></polygon> <polyline points="35.379 29.273 35.379 28.763 35.023 28.763 35.023 28.285 36.122 28.285 36.122 29.273"></polyline> <polyline points="37.382 30.804 38.48 30.804 38.48 32.525 37.382 32.525"></polyline> <polyline points="38.48 30.804 38.48 30.421 38.932 30.421 38.932 30.803 38.932 33.115 38.48 33.115 38.48 32.525"></polyline> <polyline points="38.932 30.803 39.352 30.804 39.352 32.717 38.932 32.717"></polyline> <polygon points="37.672 44.336 37.672 44.783 37.222 44.783 37.222 45.823 36.735 45.823 35.99 45.089 34.087 39.475 33.248 37.002 34.54 37.002 37.008 43.91"></polygon> <polygon points="40.672 57.309 36.736 45.823 37.222 45.823"></polygon> <polygon points="34.529 46.078 34.529 46.904 34.022 47.404 33.291 47.404 32.73 46.853 32.73 46.108 33.107 46.108 33.107 44.706 33.657 44.696 34.089 42.951 34.087 46.078"></polygon> <polygon points="34.022 47.404 33.862 64.586 33.291 47.404"></polygon> <path d="m31.817 42.154l0.008 0.003-0.25 2.55-0.053 0.532s-1.65-0.324-2.382-0.395c-0.016 0-0.032-0.003-0.045-0.003l0.045-0.082 1.726-3.097c0.016 0.003 0.029 0.005 0.045 0.008 0.195 0.037 0.313 0.061 0.313 0.061l0.6 0.339-0.011 0.081 0.004 0.003z"></path> <path d="m34.211 42.961h-0.124l-0.432 1.745h-2.082l0.25-2.55-0.008-0.003-0.003-0.003 0.011-0.081 1.282-0.658v0.903h1.105c0.32 0 0.162 0.647 0.001 0.647z"></path> <path d="m25.018 36.301c0.017 0.249-0.02 0.365-0.02 0.365"></path> <polygon points="31.824 42.069 31.817 42.154 31.814 42.151"></polygon> <polyline points="25.416 43.858 25.419 43.858 25.416 43.858 25.409 43.855"></polyline> <path d="m19.679 60.181s-1.124-0.308-1.571-2.454c0.734 0.015 2.044 0.023 2.261-0.097 0.3-0.171 0.861-0.852 0.861-1.235 0 0-2.476 0.326-3.305-0.656 0-0.286 0.01-0.592 0.031-0.915l0.302-4.806c0.388-1.997-0.472-5.313-0.472-5.313s-2.241-1.658-5.557-2.169l-1.739-1.515s1.116 2.656 2.499 4.875l1.308 2.55s-0.905 1.189 0 3.91c0.904 2.722 1.195 3.731 1.195 3.731s-0.177 0.641-0.189 0.861c-0.015 0.267 0.113 1.063 0.113 1.063h1.066c0.002 0.086 0.003 0.171 0.003 0.255 0 0.211-0.005 0.413-0.013 0.597 0 0-0.742 0.636-0.253 2.465l1.522 0.423 0.289-0.158c0.419 0.311 1.194 0.839 1.649 0.839h2.972l0.259-0.849c0 0.001-2.928-0.935-3.231-1.402z"></path> <path d="m23.212 30.311s-0.144-0.008-0.37-0.02c-0.626-0.028-1.869-0.075-2.345 0.02-0.646 0.128-2.368 1.785-3.403 2.082s-1.637 0.214-1.637 0.214l-1.916 0.657c-3.618 1.403-4.975 5.421-4.975 5.421l0.343 0.936 1.579 1.375 0.002 0.002 1.737 1.513c3.316 0.511 5.556 2.168 5.556 2.168l0.602-3.444c1.167 0.057 2.17-0.153 3.019-0.49h0.001c0.026 0.026 0.055 0.053 0.082 0.079 0.237 0.218 0.495 0.437 0.776 0.65 2.897 2.197 3.158 2.447 3.158 2.468 0.14 0.034 1.424 0.318 2.387 0.555l0.042-0.074 1.682-3.021c-0.961-0.192-2.045-0.416-2.424-0.526-0.192-0.184-0.411-0.368-0.666-0.55h-0.995s-0.216-0.908-0.6-1.318c-0.324-0.345-0.134-0.724-0.066-0.832 0.013-0.021 0.021-0.034 0.021-0.034s-0.005-0.032-0.013-0.087v-0.002c0.008-0.013 0.014-0.023 0.014-0.023 0.087-0.124 0.13-0.196 0.13-0.196l0.051-0.97 0.012-0.202 0.001 0.003 0.02-0.365v-0.007l0.124-2.346-1.445-2.705-0.106-0.198-0.379-0.709"></path> <rect height="7.75" width=".387" y="28.283" x="34.087"></rect> </g> <g id="person_2" filter="url(#filter2)" fill="#31373E" class="person_gr"> <path d="m74.473 32.482h-0.116v0.078c-0.019 0.008-0.04 0.012-0.059 0.017h-0.01s-0.002 0-0.004 0.002l-0.004 0.002h-0.008c-0.021 0.004-0.042 0.008-0.061 0.008 0 0-0.011 0-0.015-0.004h-0.006c-0.074 0-0.118-0.023-0.213-0.077v-0.036h-0.147c-0.188-0.048-0.502-0.127-0.577-0.164 0 0-0.061 0.017-0.144 0.039v-0.059h-0.287v-0.213h-0.291v-0.111c0.25-0.015 0.505-0.032 0.571-0.032 0.137 0 0.998 0.276 1.075 0.331 0.082 0.048 0.285 0.172 0.296 0.219z"></path> <path d="m74.473 32.482v0.004c0 0.025-0.051 0.053-0.116 0.074"></path> <path d="m73.979 32.509s-0.061-0.015-0.147-0.036"></path> <line y2="36.088" x2="69.692" y1="36.126" x1="69.696"></line> <rect height=".409" width=".289" y="35.583" x="73.69"></rect> <line y2="31.052" x2="66.369" y1="31.052" x1="66.372"></line> <line y2="31.854" x2="69.241" y1="31.862" x1="69.272"></line> <path d="m73.832 32.473h-0.144v0.103c-0.196-0.061-0.398-0.124-0.432-0.103-0.019 0.011-0.074 0.027-0.142 0.042h-0.002v-0.167c0.084-0.021 0.144-0.039 0.144-0.039 0.074 0.037 0.388 0.116 0.576 0.164z"></path> <path d="m74.295 32.578c-0.051 0.042-0.154 0.097-0.24 0.097-0.017 0-0.044-0.005-0.076-0.013v-0.153c0.095 0.053 0.139 0.077 0.213 0.077h0.006c0.004 0.004 0.013 0.004 0.013 0.004 0.021 0 0.042-0.004 0.063-0.008h0.008l0.004-0.002c0.002-0.002 0.004-0.002 0.004-0.002h0.005z"></path> <path d="m73.979 32.662c-0.075-0.017-0.181-0.051-0.291-0.086"></path> <polygon points="71.371 31.008 71.371 35.058 71.082 34.736 71.082 31.008"></polygon> <polygon points="71.371 35.058 71.371 35.454 71.082 35.454 71.082 34.736"></polygon> <polygon points="71.662 31.221 71.662 35.242 71.535 35.242 71.495 35.199 71.371 35.058 71.371 31.221"></polygon> <polygon points="71.535 35.242 71.371 35.242 71.371 35.058 71.495 35.199"></polygon> <rect height="3.167" width=".291" y="31.649" x="71.952"></rect> <rect height="2.312" width=".291" y="32.076" x="72.532"></rect> <rect height="1.888" width=".287" y="32.289" x="72.824"></rect> <rect height="3.592" width=".289" y="31.436" x="71.662"></rect> <rect height="1.498" width=".295" y="32.482" x="74.357"></rect> <polyline points="74.652 32.675 74.909 32.675 74.909 33.753 74.652 33.753"></polyline> <path d="m69.792 30.471v5.521h1.29v-5.516l-1.29-0.005zm0.7 5.11c-0.141 0-0.255-0.112-0.255-0.253 0-0.143 0.114-0.255 0.255-0.255 0.139 0 0.255 0.112 0.255 0.255 0 0.141-0.117 0.253-0.255 0.253z"></path> <path d="m69.791 35.991v0.174h2.271 0.218 3.032l0.003-0.174h-5.524z"></path> <path d="m70.747 35.328c0 0.141-0.117 0.253-0.255 0.253-0.141 0-0.255-0.112-0.255-0.253 0-0.143 0.114-0.255 0.255-0.255 0.138 0 0.255 0.112 0.255 0.255z"></path> <rect height="4.984" width=".55" y="31.007" x="69.241"></rect> <rect height="4.985" width=".276" y="31.008" x="69.516"></rect> <path d="m70.747 35.328c0 0.141-0.117 0.253-0.255 0.253-0.141 0-0.255-0.112-0.255-0.253 0-0.143 0.114-0.255 0.255-0.255 0.138 0 0.255 0.112 0.255 0.255z"></path> <polygon points="72.203 35.992 72.009 35.992 71.828 35.787 71.371 35.276 71.082 34.951 71.082 34.736 71.371 35.058 71.495 35.199 71.535 35.242 72.02 35.787"></polygon> <rect height=".409" width=".434" y="35.583" x="73.617"></rect> <circle cx="73.835" r=".082" cy="35.787"></circle> <circle cx="73.535" r=".082" cy="35.91"></circle> <polyline points="73.69 33.748 73.4 33.748 73.4 32.675 73.688 32.675"></polyline> <rect height="1.447" width=".289" y="32.515" x="73.111"></rect> <rect height="1.078" width=".378" y="32.675" x="73.979"></rect> <polygon points="73.979 32.473 73.979 35.583 73.69 35.583 73.69 32.785 73.688 32.785 73.688 32.473"></polygon> <rect height="2.716" width=".289" y="31.862" x="72.243"></rect> <path d="m72.28 36.165s0.076 0.171 0 0.195c-0.032 0.011-0.179 0.087-0.34 0.171-0.016 0.008-0.032 0.016-0.047 0.026"></path> <path d="m70.067 36.165c-0.011-0.003-0.039-0.003-0.087-0.008l-0.042-0.005-0.073-0.008-0.074-0.008"></path> <path d="m74.656 36.288c-0.005 0.021-0.447 0.221-0.768 0.324-0.316 0.103-0.708 0.405-1.366 0.737-0.642 0.318-2.263 0.41-2.332 0.416l0.048 0.455-0.363-0.024 0.026 0.195-0.384-0.026-0.276 0.142-0.592-0.045c-2.955-0.089-5.189-1.189-5.189-1.189l-0.634-0.374c-0.126 0.626 1.655 2.097 1.937 2.563 0.282 0.463-0.005 1.11-0.181 1.132 0 0 2.345 2.745 3.103 3.905 0.768 1.163 0.5 0.871 0.987 1.621 0.487 0.758 0.395 1.563 0 2.779s-1.924 7.069-1.924 7.069l-0.295 1.447s-0.337-0.008-0.81-0.029l-0.287 0.445c0.003 0.003 0.432 0.342 1.689 1.355 1.261 1.021 2.521 0.605 2.521 0.605l0.421 0.263-0.071 0.458h0.029c-0.103 0.037-0.455 0.118-1.463 0.321-1.992 0.402-2.642-0.118-3.374-0.403-0.732-0.292-0.955 0.111-0.955 0.111v0.292h-2.037l0.013-0.374c0-0.169 0.008-0.398 0.016-0.724 0.026-1.108 0.513-1.508 0.513-1.508 0-0.174 0.55-1.155 0.55-1.155-0.066-0.021-0.113-0.042-0.155-0.063l0.353-1.334s0.631-5.211 1.168-5.79c0.118-0.124 0.308-0.221 0.534-0.313v-0.568s0.126-0.029 0.324-0.092v-0.895c-0.374-0.071-0.618-0.216-0.618-0.216l-0.845-0.584c-0.05 0.474-0.129 1-0.213 1.224-0.176 0.458-0.879 0.924-1.358 1.39-0.479 0.458-1.576 1.795-1.576 1.795-0.176 0.289-0.819 1.042-0.819 1.042-0.647 1.216-2.113 3.071-2.113 3.071l-0.526 0.924c-0.381 0.105-0.895-0.116-1.389-0.445l-0.534 1.197s0 1.766-0.132 2.071c-0.137 0.305-0.045 1.132-0.045 1.431 0 0.305 0.711 0.916 0.711 0.916v0.605c-1.929 0.174-3.484-2.037-3.616-2.342-0.079-0.168-0.095-0.687-0.129-1.202l-0.31-0.145-0.663-0.918 0.663-0.758c0.395-0.5 1.408-1.145 1.408-1.145 0.132-0.045 0.434-0.271 0.705-0.484 0.271-0.216 0.51-0.418 0.513-0.421-0.16-0.166-0.26-0.271-0.26-0.271l0.437-0.521h0.41l-0.121-0.402s0.529-1.042 1.353-2.261c0.824-1.216 2.934-3.711 3.111-3.995 0.176-0.292 0.466-1.045 0-1.279-0.076-0.034-0.182-0.132-0.303-0.263 0-0.008-0.005-0.008-0.005-0.008-0.642-0.711-1.747-2.447-1.747-2.447l-0.705-0.347s-1.055-1.216-1.526-1.855c-0.466-0.64-0.424-1.795-0.424-1.795-0.253-0.347-0.413-0.758-0.413-0.758s-0.058-1.216 0-2.084c0.063-0.868-0.116 0.466 1.295-3.474 1.408-3.934 4.689-7.008 5.632-7.703 0.937-0.695 2.292-0.987 2.292-0.987l0.295-0.187 0.476-0.305 0.003-0.003 0.003-0.003c-0.003-0.008-0.003-0.016-0.003-0.024 0 0-0.326-0.431-0.466-0.834-0.147-0.41-0.092-1.25 0.466-1.711 0.284-0.24 0.534-0.571 0.8-0.832-0.003-0.003-0.005-0.005-0.005-0.008l0.008 0.005c0.074-0.076 0.147-0.145 0.224-0.203 0-0.011 0-0.019 0.003-0.029l0.026 0.003h0.003c0.177-0.132 0.369-0.216 0.587-0.216 0.437 0 1.974 0.197 3.145 0.439 0.402 0.084 0.758 0.176 1.016 0.26l0.174 0.019c0 0.016-0.008 0.029-0.008 0.042 0 0 0.003 0.003 0.005 0.003 0.063 0.026 0.116 0.053 0.155 0.079 0 0 0.176 0.466 0 1.071-0.063 0.229-0.224 0.39-0.424 0.5 0.063 0.168-0.005 0.787-0.056 1.195-0.034 0.216-0.134 0.371-0.134 0.371l-0.153 0.166-0.095 0.079h-0.003v0.003c0.021 0.055 0.324 0.903 0.408 1.021 0.087 0.121 0.024 0.271-0.055 0.318-0.079 0.048-0.334 0.118-0.403 0.137-0.074 0.016-0.258 0-0.258 0s0.042 0.329 0.029 0.371c-0.003 0.013-0.045 0.031-0.1 0.05 0 0 0.029 0.189 0 0.224-0.032 0.037-0.269 0.15-0.269 0.15l0.074 0.418c0.021 0.197-0.134 0.737-0.484 0.787-0.192 0.021-0.618-0.105-0.992-0.229h-0.003c-0.268-0.095-0.508-0.184-0.621-0.229l-0.353 0.171 0.208 0.118c-0.105 2.147-0.092 2.121-0.418 3.29l1.408 0.429 1.46 0.374v1.847s-2.15 0.108-2.855 0c-0.36-0.058-1.395-0.445-1.395-0.445-0.142 0.166-0.255 0.295-0.255 0.295l0.453 1.6s0.005 0.013 0.011 0.034l0.003 0.003c0.221 0.203 0.903 0.384 1.687 0.534 0.303 0.058 0.626 0.113 0.942 0.16 0.737 0.113 1.45 0.197 1.866 0.242 0.034 0.005 0.066 0.008 0.095 0.011v0.029h0.284l0.034 0.466 0.405-0.011s0.334-0.289 0.49-0.289c0.155 0 0.684-0.074 0.684-0.074s0.316-0.092 0.374-0.092h0.218 0.729s-0.137 0.092-0.2 0.118c-0.063 0.024-0.434 0.195-0.434 0.195l-0.487 0.082v-0.003c-0.195 0.103-0.387 0.205-0.387 0.205l-0.168 0.095s1.129-0.032 1.253-0.066c0.1-0.029 0.379-0.171 0.379-0.171 0.1-0.026 0.94-0.345 0.94-0.345s0.374-0.111 0.487-0.111c0.106 0.003 0.282 0.056 0.258 0.126z"></path> <line y2="55.926" x2="53.324" y1="55.928" x1="53.324"></line> <path d="m70.067 36.165c-0.011-0.003-0.039-0.003-0.087-0.008l-0.042-0.005c-0.021-0.003-0.047-0.005-0.073-0.008"></path> <path d="m74.391 36.165c-0.113 0-0.487 0.111-0.487 0.111s-0.839 0.318-0.94 0.345-0.279 0.142-0.379 0.171c-0.124 0.034-1.253 0.066-1.253 0.066l0.168-0.095s0.192-0.103 0.387-0.205v0.003l0.487-0.082s0.371-0.171 0.434-0.195c0.063-0.026 0.2-0.118 0.2-0.118h0.176s-0.426 0.258-0.561 0.313c-0.132 0.058-0.176 0.082-0.176 0.082l0.082 0.071s0.108-0.013 0.21-0.071c0.1-0.058 0.768-0.395 0.768-0.395h0.884z"></path> <path d="m73.509 36.165s-0.668 0.337-0.768 0.395c-0.103 0.058-0.21 0.071-0.21 0.071l-0.082-0.071s0.045-0.024 0.176-0.082c0.134-0.055 0.561-0.313 0.561-0.313h0.323z"></path> <line y2="27.641" x2="66.58" y1="27.644" x1="66.583"></line> </g> <g id="person_3" filter="url(#filter3)" class="person_gr"> <path d="m108.67 22.706c0 0.095-0.003 0.171-0.005 0.218v0.021l-0.326-0.005h-0.003v0.008c0 0.005-0.003 0.011-0.003 0.021 0 0.003-0.003 0.011-0.003 0.018 0 0.011 0 0.021-0.003 0.034s-0.005 0.032-0.008 0.053c-0.011-0.005-0.063-0.029-0.148-0.061-0.06-0.026-0.139-0.061-0.226-0.095-0.029-0.013-0.061-0.026-0.092-0.039-0.176-0.071-0.382-0.153-0.582-0.229-0.2-0.079-0.395-0.147-0.547-0.197-0.011-0.003-0.021-0.008-0.029-0.008-0.011-0.005-0.019-0.008-0.029-0.011-0.04-0.013-0.074-0.024-0.105-0.032-0.024-0.005-0.042-0.011-0.058-0.013h1.234c0.008 0 0.013 0 0.021-0.003 0.003 0 0.005 0 0.008-0.003 0.003 0.003 0.005 0.003 0.008 0.003 0.008 0.003 0.013 0.003 0.021 0.003h0.005c0.3 0 0.558-0.395 0.621-0.924v-0.003c0.037-0.013 0.095-0.013 0.147 0.047 0.013 0.013 0.024 0.029 0.037 0.05 0.08 0.123 0.07 0.773 0.06 1.147z" fill="#31373E"></path> <line y2="22.249" x2="104.58" y1="22.249" x1="104.58" fill="#31373E"></line> <path d="m104.07 22.249s0.461-0.058 0.505-0.003" fill="#31373E"></path> <line y2="21.492" x2="104.08" y1="21.558" x1="104.59" fill="#31373E"></line> <line y2="23.076" x2="108.32" y1="23.076" x1="108.33" fill="#31373E"></line> <path d="m102.52 18.417c0.185 0.047 0.777-0.079 1.05-0.145" fill="#31373E"></path> <path d="m105.18 19.11c0.017 0.019 0.034 0.039 0.05 0.058" fill="#31373E"></path> <path d="m104.54 22.726c-0.003 0.008-0.008 0.016-0.011 0.021l-0.003 0.003v-0.003c0-0.008 0-0.013 0.01-0.021z" fill="#31373E"></path> <path d="m104.94 20.962c-0.005 0.019-0.008 0.037-0.008 0.055-0.006 0.029-0.008 0.061-0.011 0.092 0.003-0.032 0.005-0.063 0.008-0.092 0-0.018 0-0.036 0.01-0.055z" fill="#31373E"></path> <path d="m105.02 20.657c-0.008 0.019-0.016 0.037-0.021 0.058-0.011 0.029-0.021 0.058-0.029 0.089 0.008-0.032 0.019-0.061 0.027-0.089 0-0.018 0.01-0.039 0.02-0.058z" fill="#31373E"></path> <path d="m105.57 19.765v0.003s-0.881 0.158-1.302 1.079h-0.003s-0.221 0.011-0.452 0.024c-0.098 0.005-0.197 0.011-0.284 0.016-0.042 0.003-0.084 0.005-0.116 0.008-0.029 0.003-0.056 0.005-0.074 0.005-0.016 0.003-0.029 0.003-0.037 0.005h-0.021-0.003c-0.008-0.005-0.005-0.04 0.008-0.089 0.003-0.013 0.008-0.029 0.015-0.048 0.006-0.018 0.013-0.037 0.021-0.058s0.019-0.042 0.029-0.063c0.015-0.032 0.031-0.063 0.055-0.097 0.008-0.016 0.019-0.031 0.032-0.05 0.01-0.016 0.021-0.034 0.036-0.05h0.358s0.013-0.008 0.034-0.024c0.024-0.016 0.053-0.037 0.089-0.06 0.016-0.011 0.032-0.021 0.048-0.032 0.031-0.024 0.063-0.048 0.097-0.074s0.068-0.053 0.1-0.081c0.031-0.026 0.063-0.055 0.089-0.082 0.052-0.055 0.089-0.108 0.095-0.15h0.04s0-0.003 0.003-0.005c0.003-0.005 0.008-0.011 0.01-0.019 0.006-0.008 0.011-0.018 0.019-0.026 0.005-0.011 0.011-0.024 0.019-0.034 0.019-0.042 0.04-0.089 0.05-0.134v-0.003c0.003-0.018 0.006-0.037 0.006-0.055 0-0.008 0-0.016-0.003-0.026-0.003-0.013-0.005-0.024-0.01-0.034 0-0.005-0.003-0.011-0.008-0.016-0.008-0.008-0.013-0.016-0.021-0.018-0.006-0.008-0.013-0.011-0.021-0.013-0.006-0.003-0.011-0.005-0.016-0.008-0.008-0.003-0.019-0.003-0.026-0.005-0.011 0-0.018-0.003-0.029-0.005-0.018-0.003-0.039-0.005-0.063-0.008-0.037-0.003-0.077-0.008-0.119-0.011s-0.087-0.008-0.132-0.011c-0.148-0.008-0.31-0.016-0.442-0.021-0.047-0.003-0.089-0.003-0.129-0.005-0.089-0.003-0.147-0.005-0.147-0.005s-0.087 0.087-0.208 0.21c-0.011 0.008-0.021 0.019-0.029 0.029-0.284 0.282-0.729 0.726-0.803 0.797-0.003 0.005-0.011 0.011-0.013 0.011-0.013 0.011-0.029 0.016-0.042 0.016-0.036 0-0.071-0.037-0.1-0.071-0.005-0.008-0.011-0.013-0.016-0.021-0.003-0.008-0.008-0.016-0.013-0.021 0-0.003-0.003-0.005-0.006-0.008 0-0.003-0.003-0.008-0.005-0.008-0.003-0.005-0.003-0.008-0.005-0.008 0.005-0.032 0.029-0.19 0.063-0.366 0.008-0.045 0.015-0.087 0.026-0.132 0.021-0.087 0.042-0.168 0.061-0.232 0.01-0.034 0.021-0.06 0.031-0.081 0.211-0.421 1.353-1.018 1.424-1.055v-0.003h0.003l0.979 0.121s0.258 0.216 0.463 0.447c0.019 0.018 0.034 0.04 0.05 0.058 0.063 0.071 0.119 0.145 0.155 0.208 0.07 0.107 0.18 0.357 0.19 0.389z" fill="#31373E"></path> <path d="m106.16 20.052h-0.361-0.003c-0.055 0.003-0.105 0.011-0.155 0.021 0.05-0.013 0.1-0.021 0.155-0.024h0.003 0.3l0.06 0.003z" fill="#31373E"></path> <path d="m106.09 20.135c-0.013 0.008-0.024 0.013-0.029 0.018h0.005l-0.003 0.003c-0.087 0.082-0.121 0.118-0.15 0.166h-0.003v0.003c-0.029 0.045-0.061 0.097-0.082 0.153-0.024 0.047-0.045 0.1-0.063 0.158-0.019 0.053-0.034 0.1-0.042 0.161-0.013 0.053-0.024 0.103-0.029 0.158-0.011 0.087-0.016 0.174-0.016 0.263v0.055c0 0.055 0.005 0.108 0.011 0.161 0.005 0.058 0.013 0.111 0.021 0.158v0.003c0.013 0.058 0.024 0.105 0.039 0.16 0.016 0.055 0.034 0.105 0.055 0.158v0.003c0.063 0.155 0.121 0.279 0.221 0.366h-0.376c-0.016 0-0.06 0.011-0.079 0.011-0.029 0-0.066-0.003-0.097-0.011-0.316-0.076-0.561-0.521-0.561-1.055 0-0.042 0.003-0.076 0.005-0.113 0.003-0.032 0.005-0.063 0.008-0.092 0-0.011 0.003-0.021 0.005-0.029 0-0.008 0.003-0.018 0.005-0.026 0.003-0.024 0.005-0.045 0.011-0.066 0.008-0.032 0.013-0.061 0.021-0.092 0.005-0.016 0.008-0.031 0.013-0.047 0.005-0.013 0.008-0.029 0.013-0.042 0.008-0.018 0.013-0.039 0.024-0.061 0.016-0.045 0.037-0.087 0.058-0.126 0.003-0.005 0.003-0.005 0.003-0.008 0.032-0.055 0.066-0.111 0.105-0.161 0.018-0.021 0.037-0.039 0.058-0.058 0.008-0.013 0.016-0.021 0.026-0.029 0.066-0.066 0.145-0.116 0.234-0.155 0.042-0.021 0.089-0.034 0.139-0.045 0.039-0.008 0.078-0.015 0.118-0.018 0.013-0.001 0.024-0.005 0.037-0.006h0.003 0.384l0.034 0.003c0.02 0.008-0.06 0.05-0.1 0.079z" fill="#31373E"></path> <polygon points="106.31 20.166 106.31 20.162 106.31 20.162" fill="#31373E"></polygon> <line y2="19.471" x2="107.4" y1="19.469" x1="107.4" fill="#31373E"></line> <line y2="19.471" x2="107.4" y1="19.469" x1="107.4" fill="#31373E"></line> <path d="m108.43 21.466c-0.029 0.01-0.046 0.026-0.046 0.026" fill="#31373E"></path> <path d="m108.67 22.947c-0.002 0.022-0.002 0.034-0.002 0.034" fill="#31373E"></path> <line y2="22.231" x2="107.41" y1="22.231" x1="105.98" fill="#31373E"></line> <line y2="21.592" x2="107.12" y1="21.592" x1="105.71" fill="#31373E"></line> <line y2="21.273" x2="107.1" y1="21.273" x1="105.68" fill="#31373E"></line> <line y2="20.953" x2="107.12" y1="20.953" x1="105.7" fill="#31373E"></line> <line y2="20.634" x2="107.2" y1="20.634" x1="105.77" fill="#31373E"></line> <line y2="20.308" x2="107.36" y1="20.322" x1="105.91" fill="#31373E"></line> <path d="m108.38 21.219c0 0.629-0.275 1.143-0.608 1.168-0.343-0.03-0.611-0.543-0.611-1.168 0-0.626 0.268-1.136 0.611-1.167 0.33 0.023 0.61 0.537 0.61 1.167z" fill="#31373E"></path> <polyline points="106.51 20.155 106.9 20.155 106.91 20.155 107.44 20.155 107.49 20.155" fill="#31373E"></polyline> <polyline points="106.09 20.155 106.32 20.155 106.66 20.155 106.66 20.155" fill="#31373E"></polyline> <line y2="20.049" x2="106.97" y1="20.049" x1="107.18" fill="#31373E"></line> <polyline points="106.63 20.052 106.27 20.052 106.22 20.052" fill="#31373E"></polyline> <path d="m106.83 19.323c-0.31 0.292-0.247 0.561-0.221 0.682 0.003 0.016 0.008 0.032 0.016 0.045v0.003c0.008 0.018 0.019 0.032 0.029 0.042 0.011 0.013 0.024 0.024 0.037 0.032-0.008 0.011-0.019 0.021-0.029 0.029l-0.008 0.008c-0.108 0.097-0.208 0.076-0.337 0.013v-0.003c0-0.003-0.003-0.003-0.006-0.005v-0.005c0-0.003-0.003-0.005-0.003-0.008h-0.003c-0.008-0.018-0.024-0.055-0.036-0.1v-0.003c-0.082-0.221-0.2-0.679 0.116-0.834 0.313-0.155 0.442-0.024 0.534 0.037-0.03 0.017-0.06 0.038-0.09 0.067z" fill="#31373E"></path> <path d="m103.84 20.289v0.158h-0.358c0.021-0.024 0.04-0.047 0.063-0.074 0.026-0.029 0.058-0.058 0.092-0.084h0.21z" fill="#31373E"></path> <path d="m104.27 19.957c-0.163 0.163-0.434 0.332-0.434 0.332h-0.203c0.045-0.037 0.095-0.076 0.145-0.111 0.079-0.053 0.163-0.1 0.247-0.14 0.08-0.039 0.16-0.065 0.24-0.081z" fill="#31373E"></path> <g fill="#31373E"> <path d="m99.957 62.555c-0.026 0.081-0.324 0.453-0.903 0.587-0.576 0.132-2.682-0.187-3.032-0.718-0.35-0.534-0.647-0.453-0.647-0.453s-0.189 0.105-0.35 0.134c-0.161 0.024-1.269-0.056-1.753-0.187-0.471-0.129-0.51-0.703-0.513-0.739l3.874-1.218c1.418 1.184 2.084 1.053 2.421 1.218 0.339 0.166 0.903 0.711 0.903 0.711s0.026 0.586 0 0.665z"></path> <path d="m107.18 20.049c0.005 0.039 0.016 0.081 0.034 0.105 0.003 0.003 0.003 0.005 0.005 0.008 0.026 0.026 0.058 0.024 0.105-0.008h0.003c0.034-0.024 0.076-0.055 0.126-0.105h-0.27zm-0.55 0.003c0.008 0.018 0.019 0.032 0.029 0.042 0.011 0.013 0.024 0.024 0.037 0.032 0.089 0.05 0.181 0.013 0.271-0.068 0.003-0.003 0.006-0.005 0.006-0.008l-0.35 0.002zm-2.1 2.695v0.003l0.003-0.003c0.003-0.005 0.008-0.013 0.011-0.021-0.01 0.008-0.01 0.013-0.01 0.021zm0-3.119c0-0.008-0.005-0.013-0.008-0.018 0.005 0.011 0.008 0.021 0.01 0.034v-0.016zm-0.09 0.295c-0.003 0.008-0.008 0.013-0.01 0.019 0.008-0.008 0.019-0.024 0.029-0.045-0.01 0.008-0.01 0.018-0.02 0.026zm-0.05 0.023c0.011 0 0.024 0 0.037 0.003v-0.003h-0.04zm-0.66-1.405v0.003l0.003-0.003z"></path> <path d="m104.53 19.644c-0.003-0.013-0.005-0.024-0.01-0.034 0.003 0.005 0.008 0.011 0.008 0.018v0.016z"></path> </g> <path d="m111.01 25.524c-0.189 0.371-1.184 0.637-2.263 0.587-0.758-0.039-1.239-0.213-1.587-0.326h-0.003c-0.145-0.05-0.268-0.087-0.379-0.1-0.376-0.055-0.727 0.397-1.671 0.739-0.839 0.313-1.358 2.74-1.46 3.266v0.005 0.005c0.174 1.284 0.295 2.742 0.113 3.405-0.35 1.276-1.292 6.837-1.292 6.837l-0.623 1.49c-0.94-0.826-1.453-2.29-1.479-2.687-0.016-0.205 0.042-1.04 0.103-1.797-0.137-0.082-1.292-0.968-1.345-1.634-0.003-0.071 0.003-0.187 0.021-0.339l-0.371 0.232v0.774l0.284 0.558s-0.063 1.676 0 2.913c0.068 1.237 0.332 3.592 0.221 4.389-0.113 0.795-0.529 2.232-0.505 3.113 0.029 0.879-0.205 1.398-0.371 2.395s-0.166 2.155-0.247 2.632c-0.082 0.482-1.497 6.426-1.416 7.066 0.016 0.118-0.024 0.237-0.103 0.342v0.574l-3.878 1.217c-0.037-0.005-0.074-0.011-0.105-0.021v-2.113l0.347-0.45c-0.039-0.184-0.068-0.529 0.055-1.068 0.203-0.876 0.361-4.153 0.361-4.153s0.529-2.192 0.732-2.671c0.171-0.405 0.408-0.668 0.476-0.739-0.026-1.229-0.063-3.563 0.018-4.366 0.105-1.05-0.721-1.85-0.826-1.948-0.14 0.3-0.274 0.611-0.355 0.868-0.242 0.758-2.021 4.79-2.426 5.424-0.405 0.642-0.768 5.071-0.929 5.79-0.163 0.718-1.053 1.513-1.053 1.513l0.526 0.603 0.039 1.037s0 0.416-0.363 0.503c0 0 1.079 1.387 1.16 1.945 0.079 0.558 0 0.797 0 0.797s-0.324 0.613-1.484 0.479c-1.158-0.132-1.968-0.913-2.074-1.042-0.111-0.126 0-0.561 0-0.561l-0.621-0.232s-0.082-1.261 0-1.655c-0.047-0.071-0.092-0.153-0.134-0.234-0.405-0.797-0.121-1.837 0-2.034 0.121-0.2 0.808-7.782 0.808-7.782s-0.042-1.958 0.082-4.111c0.121-2.155 0.653-8.924 1.034-9.753 0.153-1.334 0.71-2.945 1.234-4.224 0.521-1.279 1.005-2.226 1.005-2.226-0.042-0.642 0.608-3.871 0.608-3.871s0.2-0.676 0.282-1.321c0.079-0.637 0.321-1.353 0.645-1.713 0.326-0.361 0.366-0.042 0.768-0.518 0.405-0.479 1.213-0.997 1.497-0.953 0.284 0.045 0.647-0.045 0.85-0.008 0.013 0.005 0.026 0.008 0.039 0.008 0.195 0 0.403-0.261 0.405-0.263 0 0-0.142-0.303 0.324-0.658 0.463-0.361 1.513-1.282 1.513-1.282s0.063-1.132 0.608-2.011c0.59-0.95 1.624-1.313 2.642-1.216h0.003c0.495 0.047 0.984 0.2 1.418 0.453 1.292 0.758 1.561 2.261 1.574 2.355l0.003 0.003h0.221l0.045 0.479s-0.055 0.016-0.142 0.034h-0.003l0.168 0.266h-0.003v0.005c-0.071 0.037-1.213 0.632-1.424 1.055-0.011 0.021-0.021 0.047-0.032 0.079-0.021 0.066-0.042 0.145-0.06 0.232-0.011 0.045-0.018 0.087-0.026 0.132-0.034 0.176-0.058 0.337-0.063 0.368 0.003 0 0.003 0.003 0.005 0.005 0.003 0 0.005 0.008 0.005 0.008 0.003 0.003 0.005 0.008 0.005 0.011 0.005 0.003 0.011 0.013 0.013 0.021 0.005 0.008 0.011 0.013 0.016 0.021 0.029 0.034 0.063 0.069 0.1 0.069 0.013 0 0.029-0.003 0.042-0.013 0.003 0 0.011-0.008 0.013-0.01 0.074-0.074 0.518-0.516 0.803-0.797 0.008-0.011 0.019-0.021 0.029-0.032 0.121-0.121 0.208-0.21 0.208-0.21s0.058 0.003 0.147 0.008c0.04 0.003 0.082 0.003 0.129 0.003 0.132 0.008 0.295 0.013 0.442 0.024 0.045 0 0.089 0.008 0.132 0.011 0.042 0 0.082 0.008 0.118 0.011 0.024 0 0.045 0.005 0.063 0.008 0.011 0.003 0.019 0.003 0.029 0.003 0.008 0.003 0.019 0.003 0.026 0.008 0.005 0.003 0.011 0.003 0.016 0.005 0.008 0.005 0.016 0.008 0.021 0.016 0.008 0.003 0.013 0.011 0.021 0.016 0.005 0.008 0.008 0.011 0.008 0.018 0.005 0.008 0.008 0.018 0.011 0.029v0.005c0.003 0.011 0.003 0.018 0.003 0.024 0 0.021-0.003 0.039-0.005 0.055v0.005c-0.011 0.045-0.032 0.092-0.05 0.134-0.008 0.01-0.013 0.024-0.019 0.034-0.008 0.008-0.013 0.018-0.018 0.024-0.003 0.005-0.003 0.008-0.005 0.013-0.003 0.003-0.003 0.005-0.005 0.008-0.003 0-0.003 0.003-0.003 0.003h-0.039c-0.037 0-0.076 0.003-0.116 0.011h-0.003c-0.021 0.005-0.04 0.011-0.06 0.016-0.032 0.005-0.066 0.016-0.097 0.032-0.016 0.005-0.032 0.011-0.05 0.021-0.013 0.003-0.024 0.011-0.037 0.016s-0.029 0.011-0.042 0.018c-0.05 0.024-0.097 0.05-0.145 0.082-0.021 0.013-0.042 0.026-0.061 0.039-0.024 0.018-0.05 0.034-0.074 0.053-0.024 0.018-0.047 0.037-0.068 0.055l-0.003 0.003c-0.016 0.013-0.034 0.026-0.05 0.039-0.013 0.016-0.029 0.029-0.042 0.042-0.013 0.016-0.024 0.026-0.032 0.039-0.011 0.013-0.019 0.024-0.029 0.034h-0.003v0.003c-0.016 0.018-0.026 0.034-0.037 0.053-0.013 0.018-0.024 0.034-0.031 0.047-0.024 0.037-0.04 0.066-0.055 0.097-0.011 0.021-0.021 0.042-0.029 0.066-0.008 0.021-0.016 0.039-0.021 0.055-0.008 0.021-0.013 0.034-0.016 0.05-0.013 0.047-0.016 0.082-0.008 0.09h0.003c0 0.003 0.003 0.003 0.003 0.003 0.003 0 0.008-0.003 0.019-0.003 0.008-0.003 0.021-0.003 0.037-0.008 0.019 0 0.045 0 0.074-0.003 0.032-0.003 0.074-0.008 0.116-0.008 0.087-0.005 0.187-0.013 0.284-0.016 0.232-0.013 0.453-0.024 0.453-0.024h0.003l0.208 0.1 0.234 0.224-0.116 0.374-0.003 0.013v0.003c0.026 0.079 0.021 0.247 0.011 0.4 0 0.013 0 0.026-0.003 0.037 0 0.011 0 0.024-0.003 0.034-0.008 0.082-0.016 0.155-0.019 0.192 0 0.011 0 0.018-0.003 0.021v0.003c0.003 0.003 0.003 0.005 0.003 0.005s0 0.003 0 0.005c0 0.008 0 0.016 0.003 0.021 0.003 0.011 0.005 0.032 0.005 0.055 0 0.011 0.003 0.021 0.003 0.037 0.003 0.037 0.003 0.082-0.003 0.126-0.003 0.029-0.005 0.061-0.011 0.087-0.003 0.024-0.008 0.042-0.011 0.058-0.008 0.026-0.013 0.05-0.024 0.071 0 0.003-0.003 0.011-0.005 0.013-0.005 0.008-0.008 0.013-0.013 0.021v0.003h-0.005v0.005h0.855l0.279-0.476h0.398c0.084 0.071 0.179 0.108 0.276 0.108h0.168c0.003 0 0.005 0 0.011 0.003 0.016 0.005 0.034 0.008 0.058 0.016 0.032 0.005 0.066 0.016 0.105 0.032 0.011 0.003 0.019 0.005 0.029 0.008 0.008 0 0.018 0.005 0.029 0.008 0.153 0.05 0.347 0.121 0.547 0.197 0.2 0.079 0.405 0.16 0.582 0.232 0.032 0.013 0.063 0.026 0.092 0.037 0.087 0.037 0.166 0.071 0.226 0.095 0.084 0.037 0.137 0.058 0.148 0.063v-0.003c0.003-0.021 0.005-0.039 0.008-0.053 0.003-0.013 0.003-0.024 0.003-0.034 0-0.008 0.003-0.016 0.003-0.018 0-0.011 0.003-0.016 0.003-0.021 0.003-0.003 0.003-0.005 0.003-0.005l0.326 0.005v-0.024c0.003-0.047 0.005-0.124 0.005-0.218 0.011-0.374 0.013-1.024-0.063-1.145-0.013-0.021-0.024-0.037-0.037-0.05-0.055-0.058-0.111-0.058-0.147-0.045v-0.003c0.011-0.079 0.013-0.16 0.013-0.247 0-0.442-0.137-0.826-0.334-1.024-0.089-0.09-0.192-0.142-0.3-0.142h-0.005c-0.008 0-0.013 0-0.019 0.003-0.003-0.003-0.008 0-0.011 0s-0.008-0.003-0.011 0c-0.005-0.003-0.011-0.003-0.018-0.003h-0.566v-0.003c-0.008-0.063-0.003-0.126 0.008-0.163 0.053-0.182 0.058-0.155 0.21-0.413-0.021 0.018-0.224 0.066-0.263 0.182 0 0-0.055 0.1-0.074 0.147-0.018 0.045-0.06 0.203-0.087 0.247h-0.003v0.003l-0.339 0.003h-0.003v-0.005c-0.008-0.013-0.013-0.026-0.016-0.042-0.024-0.111-0.079-0.35 0.153-0.613l0.069-0.069c0.031-0.029 0.06-0.05 0.089-0.071 0.281-0.168 0.558 0.071 0.558 0.071s0.416-0.105 0.526 0.013 1.05 0.571 1.345 0.945c0.297 0.374 0.353 0.6 0.5 0.866s0.721 1.871 0.721 1.871c0.063-0.047 0.124-0.066 0.166-0.026 0.12 0.103 0.47 2.153 0.28 2.526z" fill="#31373E"></path> <path d="m104.39 19.946c-0.005 0.042-0.042 0.095-0.095 0.15-0.026 0.026-0.058 0.055-0.089 0.082-0.031 0.029-0.066 0.055-0.1 0.081s-0.066 0.05-0.098 0.074c-0.015 0.011-0.031 0.021-0.047 0.032-0.036 0.024-0.066 0.045-0.089 0.06-0.021 0.013-0.034 0.021-0.034 0.021v-0.158s0.271-0.169 0.434-0.332h0.003c0.04-0.007 0.08-0.01 0.12-0.01z" fill="#31373E"></path> <path d="m108.44 21.217c0 0.087-0.003 0.169-0.013 0.247-0.063 0.529-0.321 0.926-0.621 0.926h-0.006c-0.01 0-0.019 0-0.029-0.005 0.334-0.024 0.608-0.539 0.608-1.169 0-0.629-0.274-1.142-0.608-1.166 0.01-0.003 0.019-0.003 0.029-0.003h0.006c0.34 0.002 0.63 0.526 0.63 1.17z" fill="#31373E"></path> <path d="m107.75 22.39h-1.255c-0.005-0.003-0.008-0.003-0.011-0.003h-0.171c-0.099 0-0.196-0.037-0.282-0.108-0.103-0.088-0.156-0.21-0.221-0.366v-0.003h1.414c0.024 0.055 0.051 0.111 0.08 0.158 0.11 0.198 0.27 0.319 0.44 0.322z" fill="#31373E"></path> <path d="m107.65 22.353c0.04 0.018 0.081 0.029 0.124 0.031-0.003 0.003-0.005 0.003-0.008 0.003-0.008 0.003-0.013 0.003-0.021 0.003h-0.003c-0.168-0.003-0.324-0.123-0.437-0.321-0.029-0.047-0.055-0.103-0.079-0.158-0.079-0.195-0.126-0.434-0.126-0.695 0-0.034 0.003-0.068 0.005-0.105 0-0.053 0.005-0.108 0.013-0.158 0.008-0.055 0.013-0.111 0.026-0.161 0.011-0.055 0.026-0.105 0.042-0.158v-0.003c0.018-0.055 0.039-0.108 0.06-0.158 0.029-0.061 0.061-0.116 0.092-0.166 0.003 0 0.003-0.003 0.003-0.003 0.04-0.061 0.081-0.108 0.134-0.15l0.003-0.003c0.074-0.061 0.153-0.097 0.24-0.103 0.008-0.003 0.016-0.003 0.024-0.003h0.003c0.011 0 0.018 0 0.029 0.003-0.003 0-0.008 0-0.011 0.003-0.337 0.039-0.6 0.545-0.6 1.163 0.02 0.55 0.22 1.013 0.51 1.139z" fill="#31373E"></path> <path d="m106.01 20.116h-0.207c-0.189 0.01-0.353 0.079-0.485 0.206-0.003 0.004-0.024 0.024-0.028 0.028-0.018 0.017-0.035 0.035-0.05 0.054-0.074 0.093-0.133 0.205-0.178 0.332-0.016 0.048-0.032 0.104-0.047 0.177-0.008 0.043-0.014 0.075-0.017 0.111-0.004 0.031-0.007 0.06-0.009 0.091-0.002 0.035-0.004 0.072-0.004 0.108 0 0.495 0.219 0.92 0.509 0.99 0.028 0.007 0.058 0.011 0.08 0.012l0.328-0.013c-0.059-0.076-0.111-0.168-0.154-0.275-0.022-0.051-0.042-0.109-0.058-0.167-0.015-0.052-0.027-0.107-0.039-0.164-0.01-0.055-0.018-0.109-0.022-0.168-0.008-0.052-0.012-0.109-0.012-0.165v-0.053c0-0.104 0.005-0.193 0.016-0.273 0.006-0.058 0.017-0.111 0.029-0.164 0.011-0.063 0.028-0.12 0.044-0.168 0.02-0.06 0.041-0.115 0.065-0.167 0.021-0.05 0.05-0.103 0.089-0.161 0.03-0.046 0.065-0.088 0.144-0.161-0.01-0.004 0-0.007 0-0.01z" fill="#31373E"></path> <path d="m106.1 20.049h-0.3-0.003c-0.055 0.003-0.105 0.011-0.155 0.024-0.05 0.011-0.097 0.026-0.139 0.047-0.089 0.037-0.169 0.089-0.234 0.155-0.01 0.005-0.019 0.013-0.026 0.026-0.021 0.019-0.042 0.039-0.058 0.06-0.04 0.048-0.074 0.103-0.105 0.158 0 0.003 0 0.005-0.003 0.008-0.021 0.042-0.042 0.084-0.058 0.129-0.011 0.019-0.016 0.04-0.024 0.058-0.008 0.029-0.018 0.058-0.027 0.089-0.008 0.032-0.013 0.063-0.021 0.095-0.005 0.021-0.008 0.042-0.01 0.063-0.005 0.019-0.008 0.037-0.01 0.055-0.003 0.029-0.006 0.061-0.008 0.092-0.003 0.037-0.005 0.074-0.005 0.113 0 0.534 0.245 0.979 0.56 1.055 0.032 0.008 0.069 0.013 0.098 0.013 0.019 0 0.063-0.011 0.079-0.011h0.003l-0.279 0.474h-0.855v-0.003c0.003-0.003 0.005-0.003 0.005-0.003l0.003-0.003c0.003-0.005 0.008-0.013 0.011-0.021 0.003-0.003 0.005-0.008 0.005-0.013 0.005-0.011 0.01-0.021 0.016-0.034 0.003-0.011 0.005-0.024 0.008-0.034 0.003-0.018 0.008-0.037 0.011-0.058 0.003-0.013 0.005-0.026 0.008-0.039 0.003-0.016 0.003-0.034 0.003-0.05 0.005-0.045 0.005-0.089 0.003-0.126v-0.021c0-0.005 0-0.011-0.003-0.016 0-0.021-0.003-0.042-0.005-0.055-0.003-0.005-0.003-0.013-0.003-0.018v-0.008s0 0 0-0.003c0-0.005 0-0.013 0.003-0.026 0.003-0.037 0.01-0.108 0.019-0.192 0.003-0.021 0.003-0.045 0.003-0.069 0.01-0.153 0.015-0.324-0.011-0.402l0.003-0.016 0.116-0.371v-0.001l-0.234-0.226-0.208-0.097c0.421-0.921 1.302-1.079 1.302-1.079l0.395 0.1 0.14 0.181z" fill="#31373E"></path> </g> <g id="person_4" filter="url(#filter4)" fill="#31373E" class="person_gr"> <path d="m148.14 12.702c-0.263-0.312-0.271-0.15-0.013-0.173 0.063-0.004 0.108-0.027 0.132-0.053 0.084-0.086 0.029-0.237 0.029-0.237-0.166-0.092-0.378-0.348-0.378-0.348 0.223-0.012 0.161-0.29 0.161-0.29-0.222-0.159-0.429-0.258-0.612-0.324l0.504 1.733c0.071 0.018 0.137 0.03 0.184 0.021 0.19-0.036 0-0.329 0-0.329z"></path> <path d="m147.62 13.852l-0.228 0.021-0.213-0.597s0.081-0.141 0.174-0.304l0.27 0.88z"></path> <path d="m147.6 12.207c-0.019-0.042-0.045-0.061-0.079-0.066-0.031-0.008-0.068 0-0.111 0.018-0.047 0.016-0.095 0.047-0.147 0.082-0.036 0.024-0.074 0.053-0.111 0.084-0.105 0.092-0.189 0.197-0.189 0.197-0.058 0.063-0.114 0.132-0.163 0.187-0.042-0.153-0.174-0.319-0.284-0.432 0.011-0.005 0.045-0.024 0.181-0.095 0.048-0.029 0.095-0.05 0.15-0.069l-0.255-0.905-0.687 0.168s-0.823 1.095-0.768 1.726c0.061 0.629-0.384 1.529-0.637 1.792-0.258 0.268-2.8 1.211-2.8 1.211s-1.355 0.629-1.595 0.958c-0.242 0.329-0.637-0.021-0.637-0.021-0.003 0-0.642 0.595-0.648 0.595-0.153 0.024-3.35 0.989-3.734 1.281 0 0-1.179 0.132-1.737 0.097-0.558-0.034-2.284 0.687-2.284 0.687h-0.003c-0.187-0.113-0.384-0.221-0.537-0.303s-0.266-0.139-0.284-0.147c0 0-0.266-0.526-0.121-0.763 0.06-0.103 0.245-0.245 0.447-0.379 0.268-0.182 0.571-0.353 0.658-0.405 0.155-0.097 0.179-0.408 0-0.597-0.113-0.121-0.203-0.271-0.258-0.4 0 0 0.176-0.192 0.003-0.379-0.018-0.018-0.066-0.045-0.113-0.016-0.019-0.074-0.04-0.153-0.061-0.226 0.032-0.166-0.081-0.287-0.081-0.287s0.4-0.226 0.347-0.334c-0.111-0.221-0.655-0.808-0.823-0.953-0.169-0.14 0-0.355 0-0.355s-0.666-0.782-0.879-0.787 0.066-0.374-0.321-0.503c-0.066-0.021-0.144-0.037-0.237-0.042h-0.013c-0.105-0.005-0.263 0.005-0.453 0.029-0.068 0.011-0.137 0.021-0.213 0.032-0.066 0.011-0.134 0.024-0.202 0.037-0.142 0.029-0.292 0.066-0.445 0.108-0.355 0.097-0.724 0.237-1.053 0.421-0.019 0.008-0.034 0.019-0.05 0.029-0.535 0.31-0.95 0.745-0.987 1.342-0.016 0.24 0 0.484 0.036 0.724 0.013 0.092 0.032 0.179 0.05 0.268v0.003c0.031 0.139 0.068 0.282 0.116 0.418v0.003c0.047 0.145 0.103 0.287 0.166 0.424v0.003c0.071 0.163 0.15 0.319 0.237 0.469 0.074 0.129 0.153 0.253 0.234 0.368v0.003c0.097 0.137 0.197 0.263 0.3 0.379 0 0 0 0.003 0.003 0.003 0.111 0.124 0.224 0.234 0.339 0.332 0.134 0.111 0.268 0.205 0.397 0.271l-0.784 1.163v0.003l-1.453 0.379s-1.213-0.118-2.402 2.068c0 0-0.453 1.239-0.498 1.597l0.427 0.45s0.165 0.071 0.165 0.855c0 0.789-0.142 3.118-0.165 3.237-0.024 0.121 0.095 1.074 0.095 1.074l-0.261 0.332 0.545 1.545-1.45 1.118s1.023 1.213 1.737 1.024c0 0 0.148-0.113 0.384-0.271 0 0 0.948 2.342 1.042 3.2 0.095 0.855-0.15 3.063 0.171 3.639-0.126 0.603-0.632 3.127-0.35 4.184 0.316 1.205 0.634 1.524 0.634 1.524s-0.89 0.632-1.082 1.203c-0.189 0.571 0 1.397 0 1.397h-0.266s-0.747 3.616-0.747 3.998v2.347l-0.381 0.158v0.476l-0.508 0.603s0.497 0.658 0.881 1l-0.303 3.137c-0.058 0.363-0.095 0.668-0.071 0.716 0 0-0.047 0.787 0 0.905s1.879 0.69 2.142 0.76c0.261 0.074 1.745 0.732 2.116 0.858 1.263 0.426 2.237 0.332 2.547 0.166 0.308-0.166 0.476-0.76 0.476-0.76s0.026-0.245-0.158-0.547c0.063 0.019 1.105 0.324 1.608 0.476 0.689 0.208 2.308 0.024 2.308 0.024v-0.5c0-0.192-0.426-0.811-0.426-0.811s-0.077-0.029-0.197-0.076c-0.227-0.081-0.608-0.218-0.995-0.326-0.595-0.168-1.5-1.284-1.879-1.855-0.382-0.571-0.119-2.055-0.119-2.055l0.603-1.205-0.126-0.605s-0.319-0.253 0-0.727c0.316-0.476 1.332-4.666 1.332-4.666l-0.603-0.76s0.284-0.253 0.508-0.729c0.221-0.476 0.158-1.397 0.158-1.397l-0.287-0.379 0.447-0.59c0.116-0.142 0.208-0.26 0.252-0.329v-0.003s0.537-2.916 0.793-4.471c0.247-1.51 0.015-4.782 0-4.887v-0.003l0.113-0.421c0.811-0.258 2.211-0.763 2.376-1.232 0 0-0.426-2.784-0.713-4.119-0.284-1.332-1-6.826-1.069-7.421 0 0 6.463-2.992 6.534-3.053 0.013-0.011 0.163 0.021 0.221 0.029 0.176 0.053 0.397 0.14 0.397 0.14l0.258-0.447 0.213-0.445 0.058-0.005c1.656-0.582 4.529-3.632 4.787-3.908 0.269-0.284 0.611-1.487 0.611-1.487l0.263-0.511s0.05-0.087 0.116-0.203c0.018-0.032 0.036-0.066 0.058-0.1 0.034-0.061 0.071-0.124 0.105-0.182 0.008-0.016 0.019-0.031 0.026-0.047 0.055-0.097 0.103-0.182 0.119-0.216 0.03-0.116 0.03-0.195-0.03-0.321zm-21.88 20.716c-0.063-0.461-0.098-0.779-0.098-0.779s-0.208-1.011-0.318-1.634c-0.029-0.166-0.052-0.303-0.061-0.387-0.05-0.405 0.047-1.213 0.332-1.784 0.04-0.076 0.084-0.189 0.137-0.332 0.01 0.134 0.15 2.811 0.01 4.916zm1.77 22.142v0.982s-0.413 0.858-0.284 1.302c0.036 0.129 0.116 0.203 0.226 0.234h0.003c-0.031 0.032-0.124 0.41-0.224 0.832l-0.268 1.276c-0.016-0.016-0.029-0.032-0.04-0.047-0.008-0.008-0.013-0.013-0.019-0.021-0.379-0.469-0.648-0.929-0.737-1.234-0.21-0.739-0.224-1.3-0.224-1.3 0.103-0.019 0.185-0.048 0.234-0.09 0.347-0.287 0.634-0.887 0.634-0.887l-0.287-0.508-0.02-0.604 0.508-0.695v-1.969l-0.221-0.953s0.529-0.442 0.998-0.934l-0.427 4.49 0.921-0.034-0.77 0.16z"></path> <path d="m148.01 13.156l-0.385 0.695-0.268-0.88c0.045-0.075 0.093-0.156 0.13-0.229 0.058-0.098 0.103-0.181 0.12-0.216 0.055-0.115 0.051-0.195-0.001-0.319-0.036-0.081-0.103-0.085-0.19-0.048-0.046 0.017-0.095 0.047-0.147 0.081-0.038 0.024-0.075 0.052-0.109 0.084l-0.378-1.235 0.411-0.741 0.269 0.925 0.002 0.004 0.504 1.733 0.06 0.146z"></path> <path d="m147.16 12.324c-0.105 0.092-0.191 0.198-0.191 0.198l-0.115-0.407-0.256-0.906-0.041-0.143 0.355-0.64 0.282-0.079-0.411 0.741 0.37 1.236z"></path> <ellipse rx=".049" transform="matrix(.993 -.1181 .1181 .993 -.2838 17.433)" ry=".062" cy="11.111" cx="146.95"></ellipse> </g> <g id="person_5" filter="url(#filter5)" class="person_gr"> <path d="m181.86 57.702c-0.328-0.164-0.747 0.027-0.939 0.063-0.191 0.036-0.757 0.209-0.83 0.209-0.072 0-0.838 0.018-0.838 0.018s-0.509-0.076-0.611-0.036c-0.248 0.097-0.702 0.137-0.702 0.137l-1.175-0.237-0.474-0.392-0.219-0.356-0.182-0.182s-0.529-0.847-0.602-0.93c-0.072-0.082-0.118-0.392-0.118-0.392s-0.255-0.073-0.456-0.246c-0.2-0.173-0.127-0.456-0.127-0.456l-0.857-1.786-0.109-0.291s-0.31-1.021-0.584-1.486c-0.273-0.465-1.467-3.199-1.467-3.199l-0.218-0.119 0.127-0.282v-1.076c0-0.31-0.374-1.048-0.501-1.285s-0.173-0.456-0.173-0.456l-0.219-0.219v-0.392l-0.201-0.191v-0.383l-0.155-0.155v-0.364l-0.3-0.401-0.054-0.301s-0.11-0.219-0.155-0.292c-0.046-0.073 0-0.41 0-0.41s-0.091-0.11-0.137-0.228c-0.045-0.119-0.119-0.711-0.119-0.711v-0.565l-0.173-0.228v-0.328l-0.191-0.146v-0.301l-0.091-0.128v-0.474l-0.081-0.255v-0.137l-0.183-0.282v-0.565s-0.1-0.337-0.145-0.446c-0.046-0.11 0-0.283 0-0.283l-0.283-0.273 0.027-0.41c0.051-0.776-0.301-1.139-0.437-1.395-0.137-0.255-0.283-0.374-0.283-0.51 0-0.137 0.328-0.483 0.328-0.483h0.027l0.01-0.675-0.246-0.246c-0.247-0.246-0.137-0.346-0.137-0.401s0.155-0.355 0.246-0.748c0.091-0.392 0.055-0.856 0.055-0.856l0.182 0.173s-0.082-0.274-0.237-0.666-0.146-1.868-0.146-1.868 0.091-0.912 0.237-1.495c0.146-0.583 0.273-1.522 0.218-1.686s-0.191-0.829-0.191-1.075 0.036-0.702-0.173-0.994c-0.21-0.291-0.228-0.638-0.21-1.294 0.019-0.656-0.127-1.44-0.127-1.44l0.428-0.501h0.265l0.137-0.109-0.337-0.319-0.028-0.118-0.638-0.739s0.137-0.269 0.242-0.433c0.104-0.164 0.41-0.223 0.383-0.592s0.15-0.451 0.15-0.451 0.611 0.023 0.784 0.032c0.173 0.009 0.648 0.032 0.648 0.032 0.255-0.182 0.218-0.401 0.158-0.583s-0.073-0.316 0.024-0.389 0.195 0.025 0.171-0.243-0.327-0.479-0.327-0.479l0.247-0.106-0.052-0.275s0.231-0.091 0.195-0.185c-0.113-0.29-0.137-0.316-0.137-0.316s-0.07-0.068 0.222-0.108c0.062-0.008 0.191-0.114 0.204-0.269 0.013-0.164-0.103-0.282-0.577-0.656-0.26-0.204-0.297-0.396-0.297-0.396-0.162-0.224-0.038-0.564-0.038-0.564s0.006-0.143-0.244-0.656c-0.196-0.406-0.467-0.764-0.798-1.05 0.217-0.205 0.902-0.945 0.09-1.473-0.223-0.145-0.452-0.231-0.671-0.281-0.04-0.02-0.08-0.037-0.12-0.05l0.01 0.029c-0.419-0.073-0.787-0.015-0.982 0.039-0.002-0.001-0.004-0.001-0.006-0.001l0.002 0.002c-0.044 0.012-0.079 0.024-0.102 0.033-0.013 0.003-0.026 0.004-0.037 0.01l0.004 0.006c-0.008 0.006-0.009 0.01 0.003 0.009 0.002 0 0.002 0.001 0.004 0.001l0.017 0.025-0.534 0.323c-0.289 0.016-0.591 0.043-0.715 0.089-0.271 0.1-0.365-0.387-1.46 0.679-0.06 0.058-0.115 0.119-0.166 0.183-0.008 0.003-0.015 0.007-0.022 0.011l0.018-0.006c-0.158 0.194-0.277 0.408-0.369 0.631-0.011 0.024-0.021 0.048-0.028 0.072l0.001-0.001c-0.384 1.025-0.179 2.21-0.12 2.424 0.052 0.19 0.33 0.553 0.684 1.002l-0.035 0.022c0.016-0.002 0.03-0.005 0.046-0.008 0.128 0.164 0.268 0.339 0.409 0.521l-0.003 0.005c0.002-0.001 0.004-0.001 0.006-0.002 0.042 0.054 0.085 0.109 0.127 0.165 0.02 0.025 0.036 0.049 0.054 0.074l-0.006 0.01c0.005 0.001 0.009 0.001 0.014 0.001 0.01 0.014 0.022 0.029 0.031 0.043 0.051 0.228 0.132 0.472 0.132 0.472s0.04 0.076-0.051 0.012c-0.091-0.064-0.347-0.082-0.347-0.082l-0.437 0.893s0.137 0.118 0.009 0.146c-0.127 0.027-1.24 0.611-1.24 0.611h-0.127l-1.422 0.975c-0.456 0.273-0.967 1.54-0.967 1.54-0.191 0.109-0.273 0.675-0.273 0.675-0.575 0.537-0.893 2.643-1.003 2.999-0.109 0.355-0.401 3.136-0.502 3.445-0.1 0.31-0.063 0.811-0.054 0.975s0.583 0.829 0.629 0.939c0.046 0.109 0.547 0.857 0.802 1.23s0.875 1.093 0.875 1.093c-0.146 0.201-0.155 1.377-0.155 1.377h0.073s-0.045 0.264-0.091 0.419-0.119 1.23-0.119 1.458 0.119 0.893 0.109 1.039c-0.009 0.146 0.228 0.301 0.292 0.556 0.063 0.255 0.538 0.985 0.538 0.985l0.137 0.036 0.046 0.219 0.036 0.282-0.127 0.073 0.145 0.228c-0.109 0.11-0.237 0.438-0.237 0.438l0.109 0.219c-0.21 0.374-0.529 2.862-0.529 2.862l-0.137 0.31-0.046 1.003s0.119 0.255 0.137 0.346-0.173 0.301-0.236 0.365c-0.064 0.064-0.082 0.957-0.082 0.957-0.054 0.064-0.237 0.355-0.173 0.711s-0.045 0.41-0.045 0.41l-0.666 0.975s-0.091 0.337-0.091 0.437-0.383 0.583-0.383 0.583l-0.283 0.903-0.474 1.157s-1.175 3.464-1.193 3.655c-0.019 0.192-0.337 0.784-0.337 0.784l-0.046 0.419c-0.137 0.191-0.109 0.583-0.109 0.583s0.064 0.127 0.046 0.183c-0.018 0.054-0.31 0.51-0.31 0.51s-0.027 0.282-0.091 0.446c-0.064 0.164-0.502 0.784-0.502 0.784-0.127 0.064-0.274 0.456-0.274 0.456l0.028 0.483-0.246 0.301-0.072 0.784-0.109 0.091c-0.529 0.547-0.538 1.723-0.538 1.723l0.064 0.109v0.511s0.164 0.237 0.765 0.364c0.602 0.128 1.586 0.136 1.586 0.136l0.082-0.456s0.21 0.11 0.884 0.255c0.675 0.146 3.236 0.328 4.458 0.237 1.221-0.091 1.358-0.374 1.503-0.547 0.146-0.173 0.009-0.237 0.009-0.237-0.401-0.328-2.151-0.438-2.324-0.447-0.174-0.009-0.219-0.054-0.219-0.054s-0.063 0.018-0.109-0.037c-0.046-0.055-0.182-0.046-0.182-0.046l-0.83-0.547-0.911-0.711c0.055-0.619-0.282-1.148-0.282-1.148l0.091-0.018c0.173-0.082 0.255-0.41 0.255-0.501s0.027-0.182 0.136-0.492 0-0.866 0-0.866c0.31-0.455 2.634-5.487 2.634-5.487l3.008-7.21 0.702 1.504 2.243 4.64 0.939 1.96s0.665 1.085 0.72 1.139c0.054 0.055 0.637 1.304 0.656 1.377s0.912 1.449 1.003 1.613 0.574 1.294 0.629 1.467c0.055 0.174 0.265 0.283 0.265 0.283l0.237 0.264-0.073 0.055c-0.074 0.055-0.109 0.191-0.064 0.246 0.046 0.055 0.466 0.583 0.466 0.583l0.136 0.046s0.164-0.073-0.009 0.155-0.091 0.456 0 0.556c0.09 0.1 0.109 0.2 0.109 0.2l-0.073 0.019 0.027 0.246c-0.037 0.875 0.41 1.732 0.41 1.732l0.127 0.028 0.255 0.483h0.738c1.139-0.356 1.34-0.665 1.34-0.665 0-0.128 0.155-0.374 0.155-0.374 1.923-0.191 3.273-0.912 4.375-1.723 1.104-0.812 1.441-1.386 1.522-1.531 0.06-0.145-0.02-0.391-0.02-0.391z" fill="#31373E"></path> <g id="lily_evolution"> <path d="m189.86 4.582v1.163s-0.204 0.168-0.532 0.168c-0.329 0-0.533-0.189-0.533-0.189v-0.254c-0.017 0.004-0.029 0.005-0.029 0.005l-1.643-0.094c-0.519 0.947-1.852 1.266-3.147 1.129l0.002 0.001v0.348s-0.043 0.215-0.506 0.215c-0.464 0-0.517-0.215-0.517-0.215v-0.558c-0.003-0.001-0.005-0.001-0.008-0.003-1.357-0.447-1.115-1.412-1.115-1.412l-1.689-0.064v0.119s-0.283 0.2-0.557 0.2c-0.275 0-0.517-0.2-0.517-0.2v-1.153s0.226-0.226 0.538-0.226c0.311 0 0.537 0.226 0.537 0.226v0.61l1.755 0.06s0.06-0.151 0.095-0.178c0 0 0.792-0.937 2.493-0.937 0.165 0 0.323 0.01 0.473 0.028v-1.009s0.194-0.204 0.509-0.204c0.314 0 0.546 0.204 0.546 0.204l-0.034 1.199s-0.032 0.017-0.087 0.038c0.824 0.312 1.279 0.798 1.279 0.798v0.543l1.594 0.093s0.012 0.001 0.029 0.006v-0.489s0.151-0.216 0.539-0.216c0.4 0 0.54 0.248 0.54 0.248z" fill="#31373E"></path> <g fill="#31373E"> <path d="m180.53 3.925s1.138-0.145 1.337-0.364c0.199-0.218-0.092-0.315-0.092-0.315"></path> <path d="m180.87 3.004s-1.39-0.237-2.538-0.086c-1.147 0.151-1.051 0.426-1.051 0.426"></path> <path d="m177.28 3.561c0.072 0.024 0.605 0.381 1.99 0.364"></path> <path d="m183.15 2.05s-0.344-0.453 1.541-0.598"></path> <path d="m185.87 1.452s2.941 0.145 1.632 0.776"></path> <path d="m183.7 2.325s1.147 0.194 1.972 0.194"></path> <path d="m189.86 3.677c0.043-0.011 1.594 0.022 1.788 0.425"></path> <path d="m190.94 4.523s-1.261 0.307-3.572 0"></path> <path d="m188.63 3.675s-1.883 0.058-1.637 0.558"></path> <path d="m181.47 5.208s-0.902 0.543 0.769 0.705"></path> </g> </g> </g>
 </svg>